<svg xmlns="http://www.w3.org/2000/svg" viewBox="0 0 1600 2280" role="presentation"><path fill="#FFC107" fill-rule="evenodd" d="M164.5,1706.7 L164.5,1698.1 L164.5,1689.6 L164.6,1681 L164.7,1672.5 L164.8,1663.9 L164.9,1655.4 L165.1,1646.8 L165.3,1638.3 L165.5,1629.7 L165.8,1621.2 L166.5,1612.7 L169.4,1604.6 L172.3,1596.4 L175.1,1588.3 L177.9,1580.2 L180.6,1572.1 L183.3,1563.9 L186,1555.8 L188.7,1547.7 L191.3,1539.6 L193.9,1531.5 L196.5,1523.4 L199.1,1515.3 L201.7,1507.2 L204.4,1499.1 L207.2,1491.1 L210,1483.1 L212.9,1475.1 L215.9,1467.1 L219.1,1459.2 L222.3,1451.3 L225.5,1443.4 L228.8,1435.5 L232.1,1427.7 L235.4,1419.8 L238.5,1412 L241.6,1404.1 L244.4,1396.2 L247.1,1388.2 L249.6,1380.2 L251.8,1372.2 L253.9,1364.1 L255.7,1355.9 L257.5,1347.7 L259.1,1339.5 L260.7,1331.3 L262.3,1323.1 L264,1314.9 L265.8,1306.8 L267.7,1298.6 L269.8,1290.6 L272.1,1282.5 L274.6,1274.6 L277.4,1266.7 L280.3,1258.9 L283.5,1251.2 L286.8,1243.5 L290.3,1235.9 L293.9,1228.4 L297.6,1220.8 L301.3,1213.3 L305,1205.9 L308.8,1198.4 L312.5,1190.9 L316.1,1183.5 L319.7,1176 L323.3,1168.5 L326.9,1161.1 L330.4,1153.6 L334,1146.2 L337.5,1138.8 L341.2,1131.4 L344.9,1124.1 L348.6,1116.8 L352.5,1109.6 L356.4,1102.4 L360.4,1095.2 L364.4,1088.1 L368.4,1081 L372.4,1073.9 L376.4,1066.8 L380.4,1059.8 L384.2,1052.6 L387.9,1045.5 L391.4,1038.3 L394.8,1031 L398,1023.7 L401.1,1016.3 L404.1,1008.9 L407,1001.4 L409.8,993.9 L412.6,986.4 L415.5,978.9 L418.4,971.5 L421.4,964.1 L424.6,956.7 L427.9,949.5 L431.5,942.4 L435.2,935.5 L439.1,928.6 L443.3,921.9 L447.5,915.3 L451.9,908.8 L456.3,902.3 L460.8,896 L465.3,889.6 L469.7,883.2 L473.4,877.8 L477.1,872.3 L481.6,865.5 L486,858.7 L490.2,851.7 L494.3,844.6 L498.2,837.4 L502.1,830.1 L506,822.8 L509.9,815.5 L513.9,808.3 L518,801.1 L522.2,794 L526.6,787.1 L531.2,780.4 L536.1,773.8 L541.1,767.5 L546.4,761.3 L552,755.4 L557.7,749.6 L563.5,744 L569.5,738.5 L575.6,733.1 L581.7,727.9 L587.9,722.6 L594,717.4 L600.2,712.2 L606.3,707 L612.4,701.7 L618.4,696.4 L624.4,691.1 L630.4,685.8 L636.3,680.5 L642.3,675.3 L648.3,670.1 L654.4,664.9 L660.5,659.8 L666.7,654.8 L672.9,650 L679.3,645.2 L685.6,640.5 L692.1,635.8 L698.5,631.3 L705,626.7 L711.4,622.2 L717.8,617.6 L724.2,613 L730.5,608.3 L736.8,603.5 L743,598.7 L749.2,593.8 L755.3,588.7 L761.4,583.7 L767.5,578.6 L773.7,573.6 L779.9,568.6 L786.2,563.8 L792.7,559.1 L799.2,554.7 L805.9,550.5 L812.8,546.6 L819.9,543 L814.2,514.8 L821.7,511.5 L829.3,508.4 L836.9,505.5 L844.6,502.7 L852.4,500.1 L860.2,497.6 L868,495.2 L875.8,492.8 L883.7,490.4 L891.7,487.8 L899.5,485.3 L907.4,482.6 L915.2,479.8 L923,477 L930.7,474 L938.4,471 L946.1,467.9 L953.8,464.9 L961.5,461.8 L969.2,458.7 L977,455.6 L984.7,452.7 L992.5,449.8 L1000.4,446.9 L1008.2,444.2 L1016.1,441.5 L1024,438.9 L1041.1,466.8 L1048.9,464.3 L1056.7,461.9 L1064.5,459.4 L1072.3,456.8 L1080.1,454.2 L1087.9,451.5 L1095.6,448.8 L1103.4,445.9 L1111.1,442.9 L1118.8,439.9 L1126.5,436.8 L1134.3,433.6 L1142,430.4 L1149.7,427.2 L1157.5,424.1 L1165.3,421 L1173.1,417.9 L1181,415 L1188.8,412.1 L1196.7,409.3 L1204.7,406.6 L1212.6,403.9 L1220.6,401.2 L1228.6,398.5 L1236.5,395.8 L1244.5,393 L1252.5,390.2 L1260.5,387.2 L1268.5,384.2 L1276.4,381.1 L1284.4,377.8 L1292.4,374.4 L1300.3,370.9 L1308.3,367.3 L1316.3,363.7 L1324.3,359.9 L1332.3,356 L1340.2,351.8 L1348.2,347.4 L1356.1,342.2 L1363.9,335.6 L1370,315 L1370,315 L1359,295.6 L1349.6,290.6 L1340.5,287.4 L1331.4,285 L1322.3,283.2 L1313.3,281.8 L1304.4,280.8 L1295.4,280.2 L1286.5,279.8 L1277.6,279.7 L1268.8,279.9 L1259.9,280.3 L1251.1,281 L1242.4,281.8 L1233.6,282.8 L1224.9,283.9 L1216.2,285.1 L1207.4,286.3 L1198.7,287.5 L1190,288.7 L1181.2,289.8 L1172.4,290.8 L1163.6,291.6 L1154.7,292.4 L1145.8,292.9 L1136.8,293.4 L1127.8,293.7 L1118.8,293.9 L1109.7,294.1 L1100.6,294.2 L1091.5,294.3 L1082.3,294.4 L1073.2,294.6 L1064.1,294.9 L1054.9,295.4 L1045.9,296.1 L1036.8,297 L1027.8,298.2 L1018.9,299.6 L1010,301.2 L1001.2,303.1 L992.4,305.3 L983.7,307.6 L975.1,310.1 L966.5,312.7 L957.9,315.5 L949.3,318.3 L940.7,321.1 L932.1,324 L923.5,326.8 L914.9,329.5 L906.3,332.2 L897.6,334.8 L888.9,337.4 L880.1,339.8 L871.3,342.3 L862.5,344.7 L853.7,347.2 L844.9,349.7 L836.1,352.3 L827.4,355.1 L818.6,358.1 L809.9,361.5 L801.1,365.1 L792.5,369.1 L799.3,405.9 L791.2,410.2 L783.3,414.7 L775.5,419.5 L767.8,424.5 L760.3,429.7 L752.8,435 L745.5,440.5 L738.2,446.1 L731,451.7 L723.8,457.4 L716.7,463.1 L709.6,468.7 L702.5,474.3 L695.3,479.7 L688.1,485.1 L680.8,490.4 L673.5,495.6 L666.1,500.7 L658.7,505.6 L651.1,510.5 L643.6,515.3 L636,520.1 L628.4,524.9 L620.7,529.7 L613.1,534.5 L605.6,539.4 L598.1,544.4 L590.6,549.5 L583.3,554.7 L576,560 L568.9,565.5 L561.8,571.1 L554.9,576.8 L548,582.6 L541.3,588.6 L534.6,594.6 L506.3,577.6 L499.5,583.8 L492.7,590 L485.9,596.2 L479.1,602.3 L472.1,608.4 L465.1,614.3 L457.9,620.2 L450.6,625.9 L443.2,631.6 L435.7,637.1 L428.1,642.6 L420.4,648.1 L412.7,653.5 L405,659 L397.3,664.5 L389.7,670.2 L382.3,676 L375,681.9 L368,688.1 L361.2,694.4 L354.7,701 L348.5,707.9 L342.7,715 L337.1,722.3 L331.8,729.9 L326.9,737.6 L322.2,745.6 L317.7,753.7 L312.4,763.3 L307.5,773.3 L303.5,782.1 L299.7,791 L295.9,799.8 L292.2,808.6 L288.4,817.4 L284.6,826.1 L280.7,834.6 L276.8,843.1 L272.7,851.6 L268.6,859.9 L264.4,868.2 L260.2,876.4 L255.9,884.6 L251.7,892.8 L247.4,901 L243.3,909.2 L239.2,917.4 L235.3,925.7 L231.6,934.1 L228,942.5 L224.7,951 L221.5,959.6 L218.6,968.3 L215.8,977 L213.2,985.8 L210.8,994.6 L208.5,1003.5 L206.3,1012.4 L204.1,1021.2 L202,1030.1 L199.8,1038.9 L197.6,1047.7 L195.3,1056.4 L192.9,1065.1 L190.3,1073.7 L187.7,1082.2 L184.9,1090.7 L181.9,1099.1 L178.9,1107.5 L175.7,1115.8 L172.5,1124.1 L169.2,1132.4 L165.9,1140.7 L162.7,1149 L159.5,1157.3 L156.4,1165.7 L153.5,1174.1 L150.7,1182.5 L148.1,1191 L145.6,1199.5 L143.4,1208.1 L141.3,1216.8 L139.5,1225.5 L137.8,1234.2 L136.2,1243 L134.8,1251.8 L133.5,1260.6 L132.3,1269.4 L131.1,1278.2 L129.9,1287 L128.7,1295.9 L127.5,1304.6 L126.2,1313.4 L124.9,1322.1 L123.4,1330.8 L121.9,1339.5 L120.3,1348.2 L118.6,1356.8 L116.8,1365.4 L115,1374 L113.2,1382.5 L111.4,1391.1 L109.6,1399.7 L107.9,1408.3 L106.2,1416.9 L104.7,1425.5 L103.2,1434.2 L101.9,1442.8 L100.7,1451.5 L99.6,1460.2 L98.6,1469 L97.7,1477.7 L96.9,1486.4 L96.1,1495.2 L95.4,1503.9 L94.8,1512.7 L94.2,1521.5 L93.7,1530.2 L93.3,1539 L92.8,1547.8 L92.4,1556.6 L92.1,1565.3 L91.9,1574.1 L91.7,1582.9 L91.6,1591.7 L91.6,1600.5 L89.5,1609 L87,1617.3 L84.5,1625.8 L82,1634.2 L79.6,1642.6 L77.2,1651 L74.8,1659.5 L72.5,1667.9 L70.1,1676.4 L67.8,1684.8 L65.5,1693.3 A50,50 0 0 0 164.5,1706.7 Z M284,1109.5 L296,1087.4 L306.7,1064.9 L317.5,1042.4 L328.4,1020.1 L339.6,997.9 L351,976 L362.7,954.2 L374.8,932.7 L387.2,911.5 L399.9,890.5 L413.1,869.9 L426.6,849.8 L440.7,830.6 L455.8,810.9 L471.1,791.4 L486.7,772.2 L502.5,753.2 L518.6,734.4 L535,715.9 L551.6,697.7 L568.6,679.7 L585.8,662 L603.3,644.7 L621,627.5 L639,610.5 L656.3,592.7 L656.3,592.7 L635,605.7 L615.1,620.6 L595.7,636.3 L576.8,652.5 L558.3,669.3 L540.2,686.5 L522.5,704.2 L505.3,722.4 L488.4,740.9 L471.9,759.8 L455.8,779.1 L440.1,798.6 L424.8,818.5 L410.2,838.5 L396.6,859.2 L383.5,880.5 L371,902.1 L359,924.1 L347.6,946.3 L336.7,968.8 L326.3,991.6 L316.5,1014.7 L307.1,1037.9 L298.3,1061.4 L290.2,1085.1 L284,1109.5 Z M410.7,755.1 L428.9,736.5 L446.4,717.3 L464,698.3 L481.9,679.6 L500.1,661.1 L518.6,642.9 L537.4,625 L556.6,607.5 L576.1,590.3 L596,573.6 L616.2,557.3 L636.8,541.4 L657.8,525.9 L679.1,511 L700.8,496.5 L722.9,482.6 L745.3,469.2 L768,456.4 L791.1,444.1 L814.4,432.4 L838.1,421.2 L861.8,410.7 L885.5,400.5 L909.4,390.5 L933.4,380.7 L957.1,370.1 L957.1,370.1 L931.8,376.3 L907.1,384.1 L882.5,392.6 L858,401.6 L833.7,411.2 L809.4,421.5 L785.3,432.6 L761.7,444.5 L738.3,457 L715.4,470.2 L692.9,484.1 L670.7,498.6 L649.1,513.7 L627.8,529.5 L607,545.7 L586.7,562.5 L566.9,579.8 L547.5,597.5 L528.6,615.8 L510.1,634.4 L492.2,653.4 L474.7,672.9 L457.7,692.7 L441.2,712.9 L425.3,733.5 L410.7,755.1 Z M646.4,580.1 L666.3,567.3 L685.8,554.2 L705.5,541.4 L725.4,529 L745.5,517 L765.9,505.5 L786.6,494.5 L807.5,484 L828.6,473.9 L849.9,464.4 L871.5,455.3 L893.4,446.5 L915.3,438.1 L937.4,429.9 L959.6,422 L981.8,414.4 L1004.2,407 L1026.7,399.9 L1049.3,393.1 L1071.9,386.5 L1094.6,380.1 L1117.4,373.9 L1140.3,368 L1163.2,362.2 L1186.2,356.5 L1209,350 L1209,350 L1185.4,352.8 L1162,356.8 L1138.8,361.4 L1115.6,366.3 L1092.5,371.6 L1069.4,377.2 L1046.5,383.2 L1023.6,389.6 L1000.9,396.3 L978.2,403.4 L955.7,410.8 L933.3,418.6 L911.1,426.8 L889,435.4 L867,444.4 L845.3,453.8 L823.8,463.8 L802.6,474.3 L781.7,485.5 L761.2,497.2 L741,509.5 L721.1,522.3 L701.7,535.7 L682.6,549.7 L664,564.3 L646.4,580.1 Z M1005.3,514.3 L1019.4,512.2 L1033.1,509.1 L1046.7,505.8 L1060.3,502.4 L1074,499.1 L1087.6,495.8 L1101.3,492.5 L1114.9,489.3 L1128.6,486.1 L1142.3,482.9 L1156.1,479.8 L1169.8,476.7 L1183.6,473.7 L1197.4,470.7 L1211.3,467.7 L1225.1,464.7 L1239,461.8 L1252.8,459 L1266.8,456.1 L1280.7,453.3 L1294.6,450.5 L1308.6,447.7 L1322.6,444.8 L1336.5,441.9 L1350.5,438.9 L1364.4,434.6 L1364.4,434.6 L1349.9,433.9 L1335.5,434.7 L1321.2,435.9 L1307,437.3 L1292.8,438.9 L1278.6,440.7 L1264.4,442.7 L1250.3,444.8 L1236.2,447.1 L1222.1,449.6 L1208.1,452.3 L1194.1,455.1 L1180.2,458 L1166.3,461.2 L1152.5,464.5 L1138.7,467.9 L1125,471.6 L1111.3,475.4 L1097.7,479.3 L1084.2,483.5 L1070.7,487.8 L1057.3,492.4 L1044.1,497.1 L1030.9,502.1 L1017.9,507.5 L1005.3,514.3 Z M1060.4,266.6 L1072.2,265.4 L1083.7,263.3 L1095.2,261.2 L1106.7,259 L1118.1,256.8 L1129.6,254.5 L1141,252.3 L1152.5,250.2 L1163.9,248 L1175.3,245.8 L1186.7,243.7 L1198.2,241.6 L1209.6,239.5 L1221,237.4 L1232.4,235.3 L1243.8,233.3 L1255.3,231.2 L1266.7,229.2 L1278.1,227.2 L1289.5,225.2 L1300.9,223.2 L1312.3,221.1 L1323.7,219.1 L1335.2,217 L1346.6,214.8 L1357.7,211.7 L1357.7,211.7 L1346.1,211.4 L1334.5,212 L1322.9,212.9 L1311.4,214 L1299.8,215.2 L1288.2,216.5 L1276.7,217.9 L1265.1,219.4 L1253.6,221.1 L1242.1,222.8 L1230.6,224.7 L1219.1,226.6 L1207.6,228.7 L1196.1,230.8 L1184.7,233.1 L1173.3,235.4 L1161.8,237.9 L1150.4,240.5 L1139.1,243.2 L1127.7,246 L1116.4,248.9 L1105,251.9 L1093.8,255.1 L1082.5,258.5 L1071.4,262.1 L1060.4,266.6 Z"/></svg>
